<svg xmlns="http://www.w3.org/2000/svg" width="1200" height="630" viewBox="0 0 1200 630" fill="none">
  <!-- Background -->
  <rect width="1200" height="630" fill="#F8FAFC"/>

  <!-- Blue accent bar top -->
  <rect width="1200" height="6" fill="#2563EB"/>

  <!-- Logo icon -->
  <rect x="80" y="220" width="80" height="80" rx="20" fill="#2563EB"/>
  <path d="M98 263L111 276L138 248" stroke="white" stroke-width="6" stroke-linecap="round" stroke-linejoin="round"/>

  <!-- Title -->
  <text x="185" y="260" font-family="system-ui, -apple-system, sans-serif" font-size="52" font-weight="700" fill="#0F172A">ClassManager</text>

  <!-- Subtitle -->
  <text x="185" y="300" font-family="system-ui, -apple-system, sans-serif" font-size="24" fill="#64748B">학원 올인원 관리 시스템</text>

  <!-- Feature pills -->
  <rect x="80" y="370" width="100" height="40" rx="20" fill="#EFF6FF" stroke="#BFDBFE" stroke-width="1.5"/>
  <text x="105" y="396" font-family="system-ui, sans-serif" font-size="16" font-weight="500" fill="#2563EB">출결관리</text>

  <rect x="200" y="370" width="100" height="40" rx="20" fill="#EFF6FF" stroke="#BFDBFE" stroke-width="1.5"/>
  <text x="225" y="396" font-family="system-ui, sans-serif" font-size="16" font-weight="500" fill="#2563EB">수납관리</text>

  <rect x="320" y="370" width="100" height="40" rx="20" fill="#EFF6FF" stroke="#BFDBFE" stroke-width="1.5"/>
  <text x="345" y="396" font-family="system-ui, sans-serif" font-size="16" font-weight="500" fill="#2563EB">성적관리</text>

  <rect x="440" y="370" width="100" height="40" rx="20" fill="#EFF6FF" stroke="#BFDBFE" stroke-width="1.5"/>
  <text x="465" y="396" font-family="system-ui, sans-serif" font-size="16" font-weight="500" fill="#2563EB">상담일지</text>

  <rect x="560" y="370" width="120" height="40" rx="20" fill="#EFF6FF" stroke="#BFDBFE" stroke-width="1.5"/>
  <text x="577" y="396" font-family="system-ui, sans-serif" font-size="16" font-weight="500" fill="#2563EB">학부모 소통</text>

  <!-- NFC / QR / PIN icons row -->
  <rect x="80" y="450" width="160" height="50" rx="12" fill="#F1F5F9"/>
  <text x="115" y="482" font-family="system-ui, sans-serif" font-size="15" fill="#475569">NFC / QR / PIN</text>

  <rect x="260" y="450" width="200" height="50" rx="12" fill="#F1F5F9"/>
  <text x="285" y="482" font-family="system-ui, sans-serif" font-size="15" fill="#475569">카카오 알림톡 연동</text>

  <rect x="480" y="450" width="180" height="50" rx="12" fill="#F1F5F9"/>
  <text x="505" y="482" font-family="system-ui, sans-serif" font-size="15" fill="#475569">교육청 서류 자동</text>

  <!-- URL -->
  <text x="80" y="580" font-family="system-ui, sans-serif" font-size="20" fill="#94A3B8">classmanager.site</text>

  <!-- Right side decorative dashboard mockup -->
  <rect x="780" y="80" width="340" height="470" rx="16" fill="white" stroke="#E2E8F0" stroke-width="1.5"/>

  <!-- Mock sidebar -->
  <rect x="780" y="80" width="60" height="470" rx="16" fill="#1E293B"/>
  <rect x="780" y="80" width="60" height="470" fill="#1E293B"/>
  <rect x="796" y="96" width="28" height="28" rx="8" fill="#3B82F6"/>
  <rect x="796" y="140" width="28" height="4" rx="2" fill="#475569"/>
  <rect x="796" y="156" width="28" height="4" rx="2" fill="#475569"/>
  <rect x="796" y="172" width="28" height="4" rx="2" fill="#475569"/>
  <rect x="796" y="188" width="28" height="4" rx="2" fill="#475569"/>
  <rect x="796" y="204" width="28" height="4" rx="2" fill="#475569"/>

  <!-- Mock content -->
  <rect x="860" y="100" width="80" height="12" rx="3" fill="#E2E8F0"/>

  <!-- Mock stat cards -->
  <rect x="860" y="130" width="75" height="55" rx="8" fill="#EFF6FF"/>
  <rect x="870" y="142" width="40" height="6" rx="2" fill="#93C5FD"/>
  <rect x="870" y="158" width="55" height="12" rx="3" fill="#2563EB"/>

  <rect x="945" y="130" width="75" height="55" rx="8" fill="#F0FDF4"/>
  <rect x="955" y="142" width="40" height="6" rx="2" fill="#86EFAC"/>
  <rect x="955" y="158" width="55" height="12" rx="3" fill="#16A34A"/>

  <rect x="1030" y="130" width="75" height="55" rx="8" fill="#FEF2F2"/>
  <rect x="1040" y="142" width="40" height="6" rx="2" fill="#FCA5A5"/>
  <rect x="1040" y="158" width="55" height="12" rx="3" fill="#DC2626"/>

  <!-- Mock list -->
  <rect x="860" y="205" width="245" height="30" rx="6" fill="#F8FAFC" stroke="#E2E8F0"/>
  <rect x="870" y="215" width="60" height="8" rx="2" fill="#CBD5E1"/>
  <rect x="1060" y="215" width="35" height="8" rx="2" fill="#BBF7D0"/>

  <rect x="860" y="245" width="245" height="30" rx="6" fill="#F8FAFC" stroke="#E2E8F0"/>
  <rect x="870" y="255" width="50" height="8" rx="2" fill="#CBD5E1"/>
  <rect x="1060" y="255" width="35" height="8" rx="2" fill="#BBF7D0"/>

  <rect x="860" y="285" width="245" height="30" rx="6" fill="#F8FAFC" stroke="#E2E8F0"/>
  <rect x="870" y="295" width="70" height="8" rx="2" fill="#CBD5E1"/>
  <rect x="1060" y="295" width="35" height="8" rx="2" fill="#FECACA"/>

  <rect x="860" y="325" width="245" height="30" rx="6" fill="#F8FAFC" stroke="#E2E8F0"/>
  <rect x="870" y="335" width="55" height="8" rx="2" fill="#CBD5E1"/>
  <rect x="1060" y="335" width="35" height="8" rx="2" fill="#BBF7D0"/>

  <rect x="860" y="365" width="245" height="30" rx="6" fill="#F8FAFC" stroke="#E2E8F0"/>
  <rect x="870" y="375" width="65" height="8" rx="2" fill="#CBD5E1"/>
  <rect x="1060" y="375" width="35" height="8" rx="2" fill="#FDE68A"/>
</svg>
